<?xml version="1.0" encoding="UTF-8"?>
<!-- Created with Inkscape (http://www.inkscape.org/) -->
<svg width="725" height="1528" version="1.1" viewBox="0 0 725 1528" xmlns="http://www.w3.org/2000/svg" xmlns:cc="http://creativecommons.org/ns#" xmlns:dc="http://purl.org/dc/elements/1.1/" xmlns:rdf="http://www.w3.org/1999/02/22-rdf-syntax-ns#">
 <metadata>
  <rdf:RDF>
   <cc:Work rdf:about="">
    <dc:format>image/svg+xml</dc:format>
    <dc:type rdf:resource="http://purl.org/dc/dcmitype/StillImage"/>
    <dc:title/>
   </cc:Work>
  </rdf:RDF>
 </metadata>
 <g transform="translate(0 107.28)">
  <g fill="#969a98">
   <rect y="308.22" width="10" height="120" rx="5" ry="5" opacity=".301"/>
   <rect y="498.22" width="10" height="220" rx="4.3333" ry="5" opacity=".301"/>
   <rect y="308.22" width="10" height="120" rx="5" ry="5"/>
   <rect y="498.22" width="10" height="220" rx="4.3333" ry="5"/>
   <rect x="11.25" y="-101.03" width="707.5" height="1515.5" rx="115" ry="115" stroke="#a4b4ac" stroke-linecap="round" stroke-linejoin="round" stroke-width="12.5"/>
  </g>
  <g fill="none" stroke="#000" stroke-opacity=".2" stroke-width="12.5">
   <path d="m718.75 130.72v15"/>
   <path d="m11.25 130.72v15"/>
   <path d="m272.5 1414.5h15"/>
   <path d="m357.5-101.03h15"/>
   <path d="m718.75 1253.2v15"/>
   <path d="m11.25 1253.2v15"/>
  </g>
  <rect x="40" y="30.717" width="650" height="215" rx="117.5" ry="107.5" fill="#a4b4ac" stroke="#000" stroke-linecap="round" stroke-linejoin="round" stroke-width=".5"/>
  <rect x="50" y="40.717" width="497.5" height="195" rx="107.5" ry="97.5" fill="#333"/>
  <circle cx="600" cy="96.717" r="27.5" fill="#fff" fill-opacity=".86667" stroke="#000" stroke-linecap="round" stroke-linejoin="round" stroke-width=".5"/>
  <g fill-opacity=".13333">
   <rect transform="rotate(-45)" x="349.63" y="486.4" width="12.5" height="12.5" fill="#ff0"/>
   <circle cx="138" cy="138.22" r="37.5" fill="#888"/>
   <circle cx="298" cy="138.22" r="55" fill="#888"/>
   <circle cx="137.63" cy="138.22" r="17.5" fill="#08f"/>
   <circle cx="298" cy="138.22" r="32.5" fill="#08f"/>
   <circle cx="503" cy="138.22" r="5" fill="#888"/>
   <path d="m365 595.72a62.5 62.5 0 0 0-62.5 62.5 62.5 62.5 0 0 0 62.5 62.5 62.5 62.5 0 0 0 62.5-62.5 62.5 62.5 0 0 0-1.5981-13.799h-60.902v27.597h32.049a34.902 34.902 0 0 1-32.049 21.104 34.902 34.902 0 0 1-34.902-34.902 34.902 34.902 0 0 1 34.902-34.902 34.902 34.902 0 0 1 23.557 9.2013l19.532-19.532a62.5 62.5 0 0 0-43.089-17.268z" stroke-width="1.1595"/>
   <circle cx="430" cy="138.22" r="55" fill="#888"/>
   <circle cx="430" cy="138.22" r="30" fill="#08f"/>
   <circle cx="205" cy="84.467" r="5" fill="#444"/>
  </g>
  <circle cx="600" cy="179.72" r="27.5" fill="#333" fill-opacity=".86667"/>
 </g>
</svg>
